<svg width="512" height="512" viewBox="0 0 512 512" fill="none" xmlns="http://www.w3.org/2000/svg">
<path d="M0 125C0 55.9644 55.9644 0 125 0H387C456.036 0 512 55.9644 512 125V387C512 456.036 456.036 512 387 512H125C55.9644 512 0 456.036 0 387V125Z" fill="white"/>
<path d="M235.728 317.24H277.328V395H235.728V317.24ZM256.527 335.16C229.007 335.16 205.434 330.893 185.808 322.36C166.394 313.613 151.461 301.24 141.008 285.24C130.768 269.24 125.647 250.04 125.647 227.64C125.647 205.027 130.768 185.72 141.008 169.72C151.461 153.72 166.394 141.453 185.808 132.92C205.434 124.173 229.007 119.8 256.527 119.8C284.261 119.8 307.834 124.173 327.247 132.92C346.661 141.453 361.488 153.72 371.728 169.72C382.181 185.72 387.408 205.027 387.408 227.64C387.408 250.04 382.181 269.24 371.728 285.24C361.488 301.24 346.661 313.613 327.247 322.36C307.834 330.893 284.261 335.16 256.527 335.16ZM256.527 298.36C273.594 298.36 288.528 295.8 301.328 290.68C314.341 285.56 324.474 277.773 331.728 267.32C339.194 256.867 342.928 243.64 342.928 227.64C342.928 211.64 339.194 198.413 331.728 187.96C324.474 177.507 314.341 169.72 301.328 164.6C288.528 159.267 273.594 156.6 256.527 156.6C239.674 156.6 224.634 159.267 211.408 164.6C198.181 169.72 187.834 177.507 180.368 187.96C172.901 198.413 169.168 211.64 169.168 227.64C169.168 243.64 172.901 256.867 180.368 267.32C187.834 277.773 198.181 285.56 211.408 290.68C224.634 295.8 239.674 298.36 256.527 298.36Z" fill="black"/>
<path d="M296.693 395V374.52H316.853C320.992 374.52 324.042 374.925 326.005 375.736C327.968 376.547 328.949 377.955 328.949 379.96C328.949 381.24 328.522 382.221 327.669 382.904C326.837 383.587 325.632 384.067 324.053 384.344C322.496 384.6 320.618 384.76 318.421 384.824L318.677 384.568C320.277 384.568 321.76 384.611 323.125 384.696C324.49 384.781 325.685 384.973 326.709 385.272C327.733 385.571 328.533 386.029 329.109 386.648C329.685 387.267 329.973 388.12 329.973 389.208C329.973 390.531 329.504 391.619 328.565 392.472C327.626 393.325 326.293 393.965 324.565 394.392C322.837 394.797 320.8 395 318.453 395H296.693ZM304.693 388.984H318.453C319.584 388.984 320.394 388.877 320.885 388.664C321.397 388.451 321.653 388.109 321.653 387.64C321.653 387.32 321.536 387.064 321.301 386.872C321.088 386.68 320.746 386.541 320.277 386.456C319.808 386.349 319.2 386.296 318.453 386.296H304.693V388.984ZM304.693 383.224H317.109C318.24 383.224 319.05 383.117 319.541 382.904C320.053 382.691 320.309 382.349 320.309 381.88C320.309 381.389 320.053 381.048 319.541 380.856C319.05 380.643 318.24 380.536 317.109 380.536H304.693V383.224Z" fill="black"/>
<path d="M341.162 386.36V388.92H365.482V395H333.162V374.52H365.418V380.6H341.162V383.16H361.002V386.36H341.162Z" fill="black"/>
<path d="M368.351 374.52H401.631V380.6H368.351V374.52ZM380.991 380.184H388.991V395H380.991V380.184Z" fill="black"/>
<path d="M405.91 391.896V387.096H427.798V391.896H405.91ZM398.742 395L412.47 374.52H421.366L435.222 395H426.422L414.55 376.664H419.318L407.542 395H398.742Z" fill="black"/>
</svg>
